<?xml version="1.0" encoding="utf-8"?>
<!-- Generator: Adobe Illustrator 19.1.0, SVG Export Plug-In . SVG Version: 6.00 Build 0)  -->
<svg version="1.2" baseProfile="tiny" id="Layer_1" xmlns="http://www.w3.org/2000/svg" xmlns:xlink="http://www.w3.org/1999/xlink"
	 x="0px" y="0px" viewBox="0 0 106.7 112.5" xml:space="preserve">
<path fill="none" stroke="#97AFFB" stroke-width="2" stroke-linecap="round" stroke-miterlimit="10" d="M101.4,57.2L81.8,70.4
	l7.8,3.7c-2.1,3.5-4.1,4.7-5.9,5.9c-0.4,0.2-0.7,0.5-1.1,0.7c-1.1,0.7-7,3.3-12.1,2.6c-2.7-0.3-11.3-2.3-11.3-13.3V36.5h18.2v-9.4
	H63.1c3.2-2.7,5.2-6.7,5.2-11.2c0-8.2-6.6-14.8-14.8-14.8S38.8,7.7,38.8,15.9c0,4.3,1.9,8.2,4.8,10.9H27v9.7h20.2
	c0,1.8,0,13.5,0,33.4c0,9.9-6.6,13.5-12,14.2s-11.5-2-12.7-2.8c-2.2-1.5-4.9-2.5-7.7-7.6l7.3-3.4L4.8,58.6L1.4,80l7.6-3.6
	c2.9,8.6,10.2,14.7,16.4,18.3c6.6,4,17.4,6.3,22.4,12.3c2.9,3.5,4.1,4.2,5.2,4.4c0.5,0.1,1.5,0,1.9,0c1.5-0.3,2.3-0.6,5.4-4.4
	c3-3.6,6.6-5.6,11.7-7.6c3.2-1.2,6.2-2.4,8.8-4c4.7-2.8,12.9-8.7,16.4-17.9l8.2,3.8L101.4,57.2z M46.7,15.9c0-3.8,3.1-6.9,6.9-6.9
	c3.8,0,6.9,3.1,6.9,6.9s-3.1,6.9-6.9,6.9C49.7,22.7,46.7,19.7,46.7,15.9z"/>
<circle fill="#DB343F" cx="53.4" cy="91.8" r="6.1"/>
</svg>
