<?xml version="1.0" encoding="utf-8"?>
<!-- Generator: Adobe Illustrator 19.1.0, SVG Export Plug-In . SVG Version: 6.00 Build 0)  -->
<svg version="1.2" baseProfile="tiny" id="Layer_1" xmlns="http://www.w3.org/2000/svg" xmlns:xlink="http://www.w3.org/1999/xlink"
	 x="0px" y="0px" viewBox="0 0 40.9 78.5" xml:space="preserve">
<path fill="#5D71FA" d="M27.7,78.5H11.3l0-1.7c0-10.5,0-23.9,0-33.3c0-0.2,0-0.4,0-0.5c0,0,0,0,0,0c-1.2,0-2.4,0-3.7,0
	c-1.3,0-2.7,0-4,0c-0.4,0-1.7,0-2.7-0.9c-0.6-0.6-0.9-1.5-0.9-2.6c0-2.7,0-5.6,0-9.2c0-0.4,0-1.7,0.9-2.6c0.9-0.9,2.2-0.9,2.6-0.9
	c1,0,2,0,2.9,0c1.3,0,2.6,0,4,0c0.3,0,0.4,0,0.6,0c0-0.1,0-0.3,0-0.7c0-0.8-0.1-1.6-0.1-2.4c-0.1-2.3-0.3-4.6-0.1-7
	c0.3-4.9,1.7-11.9,9.4-15.2c5.2-2.2,9.5-1.8,14.5-1.2c0.7,0.1,1.5,0.2,2.2,0.2l1.5,0.2v14.4h-1.7c-0.6,0-1.2,0-1.7,0
	c-1.2,0-2.3,0-3.8,0c-3,0.1-3.3,0.5-3.5,4.6c0,0.9,0,1.8,0,2.7c0,1.1,0,2.2-0.1,3.3c0,0.6,0,0.9,0,1c0.1,0,0.4,0.1,1,0.1
	c2.3-0.1,4.5-0.1,6.9-0.1c1.1,0,2.2,0,3.4,0h2l-2.1,16.2h-1.5c-1.3,0-2.5,0-3.7,0.1c-1.9,0-3.6,0.1-5.5,0c-0.2,0-0.3,0-0.4,0
	c0,0.1-0.1,0.3-0.1,0.6c0,9.5,0,22.8,0,33L27.7,78.5z M14.8,75.1h9.5c0-9.9,0-22.3,0-31.3c0-1.4,0.3-2.4,1.1-3.1
	c0.7-0.7,1.7-1,2.9-1c1.7,0.1,3.4,0,5.3,0c0.7,0,1.5,0,2.3,0l1.2-9.3c-0.5,0-1,0-1.5,0c-2.3,0-4.5-0.1-6.6,0.1c-1,0.1-2.6,0-3.6-1
	c-1.1-1.1-1.1-2.6-1-3.7c0.1-1,0.1-2,0-3c0-1,0-2,0-3c0.2-4.3,0.9-7.6,6.8-7.8c1.5-0.1,2.7,0,3.9,0V3.9c-0.2,0-0.5-0.1-0.7-0.1
	c-4.7-0.5-8.3-0.9-12.8,1c-4.7,2-6.9,5.7-7.4,12.3c-0.1,2.1,0,4.3,0.1,6.6c0,0.8,0.1,1.7,0.1,2.5c0,1,0,2.4-1,3.3
	c-0.9,0.9-2.2,1-3.2,0.9c-1.2-0.1-2.4-0.1-3.7,0c-1,0-2,0-3.1,0c0,0,0,0,0,0c0,3.6,0.1,6.6,0,9.3c0,0,0,0,0.1,0c1.4,0,2.8,0,4.1,0
	c1.2,0,2.4,0,3.6,0c1.2,0,2,0.5,2.5,0.9c0.5,0.5,1.1,1.4,1.1,3C14.8,52.4,14.7,64.9,14.8,75.1z"/>
</svg>
