<?xml version="1.0" encoding="utf-8"?>
<!-- Generator: Adobe Illustrator 19.1.0, SVG Export Plug-In . SVG Version: 6.00 Build 0)  -->
<svg version="1.2" baseProfile="tiny" id="Layer_1" xmlns="http://www.w3.org/2000/svg" xmlns:xlink="http://www.w3.org/1999/xlink"
	 x="0px" y="0px" viewBox="0 0 500 500" xml:space="preserve">
<g>
	<g>
		<path fill="#FFFFFF" d="M84.1,346.7h2.4v9.3H97v-9.3h2.4v19.9H97v-8.3H86.6v8.3h-2.4V346.7z"/>
		<path fill="#FFFFFF" d="M107,358.5v-11.8h2.4v11.7c0,3.7,2.1,6.1,5.3,6.1c3.1,0,5.3-2.3,5.3-6.1v-11.7h2.4v11.8
			c0,5.1-3,8.3-7.8,8.3C110.2,366.8,107,363.8,107,358.5z"/>
		<path fill="#FFFFFF" d="M149.7,346.7v19.9h-2.4v-15.3h-0.1l-6.5,11.3h-1.7l-6.5-11.3h-0.1v15.3h-2.4v-19.9h2.5l7.3,12.9h0.1
			l7.3-12.9H149.7z"/>
		<path fill="#FFFFFF" d="M169,361.8h-8.9l-1.8,4.9h-2.6l7.6-19.9h2.4l7.6,19.9h-2.6L169,361.8z M168.2,359.6l-3.6-10h-0.1l-3.6,10
			H168.2z"/>
		<path fill="#FFFFFF" d="M195.6,346.7v19.9h-2.5L182,350.9h-0.1v15.7h-2.4v-19.9h2.4l11.3,15.9h0.1v-15.9H195.6z"/>
		<path fill="#FFFFFF" d="M202.2,363.7l1.6-1.9c1.4,1.8,3.6,2.6,5.5,2.6c2.4,0,4.1-1.2,4.1-3.1c0-2.2-1.8-2.8-4.5-3.8
			c-2.9-1.1-6-2.4-6-5.8c0-3,2.7-5.3,6.1-5.3c2.2,0,4.4,0.8,6.3,2.3l-1.5,1.9c-1.6-1.3-3.3-2-4.8-2c-1.9,0-3.5,1-3.5,2.9
			c0,1.9,1.8,2.6,4.2,3.6c3.4,1.3,6.2,2.2,6.2,6c0,3.7-3.2,5.6-6.7,5.6C206.8,366.8,204.2,365.8,202.2,363.7z"/>
		<path fill="#FFFFFF" d="M233.2,346.7H246v2.2h-10.3v7h8.7v2.2h-8.7v8.5h-2.4V346.7z"/>
		<path fill="#FFFFFF" d="M250.8,356.7c0-5.8,4-10.2,10-10.2c5.6,0,9.9,4.1,9.9,10.2c0,6.1-4.3,10.1-9.9,10.1
			C254.9,366.8,250.8,362.4,250.8,356.7z M268.2,356.7c0-4.6-3.3-7.8-7.4-7.8c-4.5,0-7.5,3.5-7.5,7.8s3,7.8,7.5,7.8
			C265,364.5,268.2,361.2,268.2,356.7z"/>
		<path fill="#FFFFFF" d="M289,366.6L284,359h-3.8v7.6h-2.4v-19.9h7.1c4.6,0,6.6,2.6,6.6,6.2c0,3.4-1.9,5.3-4.7,5.9v0l5.3,7.8H289z
			 M280.2,356.8h4c3.3,0,4.7-1.7,4.7-4c0-2.5-1.7-3.9-4.4-3.9h-4.3V356.8z"/>
		<path fill="#FFFFFF" d="M308.4,356.7c0-5.8,4-10.2,10-10.2c5.6,0,9.9,4.1,9.9,10.2c0,6.1-4.3,10.1-9.9,10.1
			C312.4,366.8,308.4,362.4,308.4,356.7z M325.8,356.7c0-4.6-3.3-7.8-7.4-7.8c-4.5,0-7.5,3.5-7.5,7.8s3,7.8,7.5,7.8
			C322.6,364.5,325.8,361.2,325.8,356.7z"/>
		<path fill="#FFFFFF" d="M334.5,356.8c0-5.7,3.5-10.3,9.9-10.3c2.8,0,5.6,1.1,7.8,3.8l-1.8,1.5c-1.5-1.9-3.7-3-6-3
			c-4.5,0-7.4,3.3-7.4,7.9c0,4.7,3.2,7.7,7.4,7.7c2.6,0,4.6-1.2,6-3l1.8,1.5c-1.7,2.2-4.3,3.8-7.8,3.8
			C339,366.8,334.5,363.3,334.5,356.8z"/>
		<path fill="#FFFFFF" d="M358.6,346.7h12.2v2.2h-9.7v6.7h8v2.2h-8v6.5h10.3v2.2h-12.8V346.7z"/>
		<path fill="#FFFFFF" d="M389.7,361.8h-8.9l-1.8,4.9h-2.6l7.6-19.9h2.4l7.6,19.9h-2.6L389.7,361.8z M388.9,359.6l-3.6-10h-0.1
			l-3.6,10H388.9z"/>
		<path fill="#FFFFFF" d="M416.3,346.7v19.9h-2.5l-11.2-15.7h-0.1v15.7h-2.4v-19.9h2.4l11.3,15.9h0.1v-15.9H416.3z"/>
	</g>
	<g>
		<path fill="#FFFFFF" d="M373.6,290.9c-45.4,0-82.3-36.9-82.3-82.3s36.9-82.3,82.3-82.3s82.3,36.9,82.3,82.3S419,290.9,373.6,290.9
			z M373.6,132.4c-42,0-76.2,34.2-76.2,76.2s34.2,76.2,76.2,76.2s76.2-34.2,76.2-76.2S415.7,132.4,373.6,132.4z"/>
		<path fill="#FFFFFF" d="M209.6,125.6c-1.7,0-3,1.4-3,3V159H89.9v-30.4c0-1.7-1.4-3-3-3c-1.7,0-3,1.4-3,3V159H47.6
			c-1.7,0-3,1.4-3,3c0,1.7,1.4,3,3,3h36.2v9.5H47.6c-1.7,0-3,1.4-3,3s1.4,3,3,3h36.2v9.5H47.6c-1.7,0-3,1.4-3,3s1.4,3,3,3h36.2v9.5
			H47.6c-1.7,0-3,1.4-3,3c0,1.7,1.4,3,3,3h36.2v9.5H47.6c-1.7,0-3,1.4-3,3s1.4,3,3,3h36.2v9.5H47.6c-1.7,0-3,1.4-3,3s1.4,3,3,3h36.2
			v9.5H47.6c-1.7,0-3,1.4-3,3s1.4,3,3,3h36.2v30.4c0,1.7,1.4,3,3,3c1.7,0,3-1.4,3-3v-30.4h116.7v30.4c0,1.7,1.4,3,3,3s3-1.4,3-3
			V128.6C212.7,126.9,211.3,125.6,209.6,125.6z M89.9,165h116.7v9.5H89.9V165z M89.9,180.6h116.7v9.5H89.9V180.6z M89.9,196.1h116.7
			v9.5H89.9V196.1z M89.9,211.7h116.7v9.5H89.9V211.7z M89.9,227.2h116.7v9.5H89.9V227.2z M89.9,252.2v-9.5h116.7v9.5H89.9z"/>
		<path fill="#FFFFFF" d="M278.6,205.2C278.6,205.2,278.6,205.2,278.6,205.2l-12.4,0l0-30.4c0-0.6-0.2-1.2-0.5-1.6
			c-0.1-0.3-0.3-0.5-0.5-0.8c-1.2-1.2-3.1-1.2-4.3,0L227.4,206c-1,1-1.1,2.4-0.5,3.6c0.1,0.2,0.2,0.3,0.3,0.4
			c0.1,0.1,0.1,0.2,0.2,0.3c0,0,0,0,0,0c0.6,0.7,1.4,1.1,2.3,1.1c0,0,0,0,0,0l30.5,0l0,12.8c0,1.7,1.4,3,3,3c1.7,0,3-1.4,3-3l0-12.8
			l12.4,0c1.7,0,3-1.4,3-3C281.6,206.6,280.3,205.2,278.6,205.2z M236.6,205.3l23.6-23.6l0,23.5L236.6,205.3z"/>
	</g>
</g>
</svg>
