<?xml version="1.0" encoding="utf-8"?>
<!-- Generator: Adobe Illustrator 19.1.0, SVG Export Plug-In . SVG Version: 6.00 Build 0)  -->
<svg version="1.2" baseProfile="tiny" id="Layer_1" xmlns="http://www.w3.org/2000/svg" xmlns:xlink="http://www.w3.org/1999/xlink"
	 x="0px" y="0px" viewBox="0 0 78.6 78.5" xml:space="preserve">
<g>
	<path fill="#5D71FA" d="M0,68.4C0,49,0,29.6,0,10.1c0-0.1,0.1-0.2,0.1-0.3C1.2,3.8,5.8,0,11.9,0c18.3,0,36.7,0,55,0
		c6.7,0,11.7,5,11.7,11.7c0,2.2,0,4.4,0,6.6c0,16.2,0,32.4,0,48.5c0,4.9-2.3,8.5-6.7,10.6c-1.1,0.5-2.3,0.7-3.4,1.1
		c-19.4,0-38.9,0-58.3,0c-0.1,0-0.2-0.1-0.3-0.1c-4-0.7-6.9-2.8-8.6-6.4C0.7,70.9,0.4,69.6,0,68.4z M54,26.3
		c7,8.3,6.2,19.6-0.5,26.6C46.6,60,35.8,61,27.7,55.1c-3.9-2.9-6.5-6.7-7.6-11.4c-1.4-6.5,0.1-12.3,4.4-17.4c-7.1,0-14.2,0-21.3,0
		c0,0.3,0,0.5,0,0.7c0,13.3,0,26.5,0,39.8c0,0.7,0.1,1.4,0.2,2.1c0.9,4,4.2,6.5,8.5,6.5c18.2,0,36.3,0,54.5,0c0.7,0,1.5,0,2.2-0.2
		c4-0.9,6.5-4.2,6.5-8.5c0-13.2,0-26.3,0-39.5c0-0.2,0-0.5,0-0.8C68.2,26.3,61.2,26.3,54,26.3z M23,22.9c1.7,0,3.2,0,4.8,0
		c0.4,0,0.9-0.1,1.3-0.4c6.8-3.9,13.6-3.9,20.4-0.1c0.4,0.2,1,0.4,1.5,0.4c7.8,0,15.6,0,23.5,0c0.3,0,0.5,0,0.9,0
		c0-0.2,0.1-0.4,0.1-0.5c0-3.6,0-7.1,0-10.7c0-0.7-0.1-1.3-0.2-2c-0.9-4-4.1-6.5-8.4-6.5c-14.3,0-28.7,0-43,0c-0.2,0-0.4,0-0.7,0
		C23,9.8,23,16.3,23,22.9z M55.7,39.3c-0.1-9.2-7.4-16.4-16.4-16.3c-9.1,0-16.4,7.4-16.3,16.4c0,9,7.6,16.5,16.4,16.4
		C48.4,55.5,55.7,48.2,55.7,39.3z M19.6,22.8c0-6.5,0-13,0-19.5c-2.2,0-4.3,0-6.5,0c0,6.5,0,13,0,19.5
		C15.3,22.8,17.4,22.8,19.6,22.8z M9.8,22.9c0-6.5,0-12.9,0-19.4c-0.4,0.1-0.7,0.1-1,0.3C5.6,5,3.6,7.4,3.4,10.9
		c-0.2,3.9-0.1,7.8-0.1,11.7c0,0.1,0,0.1,0.1,0.2C5.5,22.9,7.6,22.9,9.8,22.9z"/>
	<path fill="#5D71FA" d="M55.7,13.1c0-1.6,0-3.2,0-4.7c0-1.1,0.6-1.7,1.7-1.7c3.2,0,6.4,0,9.7,0c1,0,1.7,0.6,1.7,1.7
		c0,3.2,0,6.5,0,9.7c0,1-0.7,1.6-1.6,1.7c-3.3,0-6.5,0-9.8,0c-1,0-1.6-0.7-1.6-1.7C55.7,16.3,55.7,14.7,55.7,13.1z M59,16.4
		c2.2,0,4.3,0,6.5,0c0-2.2,0-4.3,0-6.5c-2.2,0-4.3,0-6.5,0C59,12.1,59,14.2,59,16.4z"/>
	<path fill="#5D71FA" d="M39.3,49.9c-5.9,0-10.6-4.7-10.6-10.6c0-5.9,4.7-10.6,10.6-10.6c5.9,0,10.6,4.7,10.6,10.6
		C49.9,45.2,45.2,49.9,39.3,49.9z M31.9,39.2c-0.1,4,3.2,7.4,7.3,7.5c4,0.1,7.4-3.2,7.5-7.3c0.1-4-3.2-7.4-7.3-7.5
		C35.4,31.9,32,35.1,31.9,39.2z"/>
</g>
</svg>
